<?xml version="1.0" encoding="iso-8859-1"?>
<!-- Generator: Adobe Illustrator 16.0.0, SVG Export Plug-In . SVG Version: 6.00 Build 0)  -->
<!DOCTYPE svg PUBLIC "-//W3C//DTD SVG 1.1//EN" "http://www.w3.org/Graphics/SVG/1.1/DTD/svg11.dtd">
<svg version="1.1" id="Capa_1" xmlns="http://www.w3.org/2000/svg" xmlns:xlink="http://www.w3.org/1999/xlink" x="0px" y="0px"
	 width="31.083px" height="31.083px" viewBox="0 0 31.083 31.083" style="enable-background:new 0 0 31.083 31.083;"
	 xml:space="preserve">
<g>
	<g>
		<path d="M24.19,25.148l-2.033-0.428c0.385-0.371,0.676-0.883,0.873-1.4c0.25-0.09,0.502-0.313,0.578-0.606
			c0.096-0.387-0.006-0.733-0.248-0.883v-0.272c0.219-0.662,0.336-1.744-0.662-2.326c-0.445-0.26-0.816-0.275-1.096-0.187
			c-0.043-0.112,0.088-0.276,0.088-0.276c-0.23-0.009-0.354,0.114-0.402,0.184c-0.307-0.143-0.709-0.201-1.223-0.094
			c-1.646,0.348-1.857,2.504-1.558,2.979c-0.233,0.15-0.336,0.494-0.235,0.877c0.069,0.295,0.326,0.52,0.58,0.611
			c0.19,0.516,0.479,1.029,0.862,1.398l-2.026,0.428c-0.406,0.087-0.781,0.473-0.854,0.881l-0.273,1.533
			c-0.039,0.213,0.014,0.416,0.143,0.569c0.129,0.154,0.32,0.238,0.535,0.238h7.398c0.217,0,0.407-0.084,0.534-0.238
			c0.132-0.153,0.183-0.356,0.142-0.569l-0.271-1.535C24.973,25.622,24.596,25.236,24.19,25.148z M19.114,23.014
			c-0.135,0.03-0.443-0.14-0.506-0.384c-0.062-0.25-0.002-0.483,0.133-0.521c0.041-0.012,0.084-0.004,0.125,0.02v-0.373l0.002-0.002
			c0-0.006-0.002-0.012-0.002-0.02v-0.127c0.033-0.316,0.332-0.918,1.979-0.377c0.564,0.186,0.916-0.107,1.094-0.5
			c0.56,0.062,0.933,0.696,1.072,1.088v0.311c0.021-0.012,0.043-0.02,0.062-0.021c0,0.002,0,0.008-0.002,0.011
			c0.006,0.004,0.014,0,0.025-0.011c0.012,0,0.024-0.002,0.036,0.002c0.138,0.037,0.195,0.271,0.136,0.521
			c-0.062,0.242-0.367,0.41-0.5,0.386c-0.183,0.541-0.535,1.233-1.041,1.616c-0.062,0.048-0.123,0.084-0.189,0.123
			c-0.092,0.05-0.186,0.093-0.289,0.117c-0.1,0.028-0.201,0.045-0.311,0.045c-0.11,0-0.215-0.017-0.314-0.045
			c-0.102-0.024-0.197-0.065-0.291-0.117c-0.062-0.037-0.129-0.075-0.188-0.123C19.641,24.255,19.292,23.568,19.114,23.014z
			 M20.03,24.979c0.27,0.182,0.572,0.289,0.908,0.289c0.334,0,0.637-0.109,0.901-0.289l0.486,0.104
			c-0.392,0.314-0.867,0.488-1.38,0.488c-0.504,0-0.989-0.178-1.379-0.494L20.03,24.979z M18.678,28.059h-1.438
			c-0.123,0-0.227-0.045-0.295-0.125c-0.055-0.066-0.072-0.15-0.072-0.242h1.805V28.059L18.678,28.059z M23.043,27.001
			c-0.088,0-0.158,0.069-0.158,0.158v0.897h-3.893v-0.896c0-0.088-0.07-0.158-0.158-0.158s-0.156,0.07-0.156,0.158v0.215h-1.762
			l0.229-1.289c0.049-0.282,0.328-0.569,0.607-0.629l1.438-0.304c0.465,0.464,1.099,0.728,1.761,0.728
			c0.668,0,1.286-0.258,1.758-0.725l1.416,0.299c0.28,0.06,0.562,0.349,0.608,0.629l0.229,1.291h-1.762v-0.215
			C23.2,27.07,23.129,27.001,23.043,27.001z M24.934,27.934c-0.069,0.08-0.174,0.125-0.295,0.125h-1.438v-0.367h1.805
			C25.004,27.782,24.985,27.866,24.934,27.934z M10.947,13.88l-1.486-0.313c0.281-0.271,0.494-0.646,0.639-1.024
			c0.183-0.066,0.367-0.23,0.422-0.444c0.07-0.282-0.004-0.536-0.18-0.646v-0.199c0.158-0.484,0.244-1.274-0.484-1.7
			c-0.326-0.19-0.598-0.203-0.801-0.136C9.026,9.335,9.12,9.215,9.12,9.215C8.952,9.208,8.863,9.298,8.826,9.349
			C8.602,9.245,8.307,9.202,7.932,9.281c-1.203,0.252-1.359,1.83-1.139,2.176c-0.171,0.11-0.245,0.362-0.174,0.642
			c0.054,0.215,0.238,0.379,0.425,0.446c0.142,0.376,0.353,0.753,0.632,1.023L6.193,13.88c-0.297,0.064-0.57,0.346-0.621,0.645
			L5.37,15.647c-0.027,0.155,0.011,0.304,0.105,0.416c0.096,0.113,0.233,0.176,0.391,0.176h5.41c0.156,0,0.297-0.062,0.391-0.176
			c0.096-0.111,0.133-0.261,0.104-0.416l-0.199-1.121C11.52,14.228,11.245,13.944,10.947,13.88z M7.236,12.319
			c-0.098,0.022-0.323-0.102-0.369-0.281c-0.045-0.182-0.002-0.354,0.098-0.38c0.029-0.009,0.061-0.002,0.092,0.014v-0.273
			c0,0,0-0.001,0-0.002c0-0.004,0-0.009,0-0.013V11.29c0.022-0.231,0.241-0.67,1.445-0.275c0.413,0.136,0.669-0.079,0.799-0.364
			c0.408,0.045,0.682,0.51,0.784,0.795v0.227c0.017-0.008,0.031-0.015,0.046-0.017c0,0.002,0,0.006-0.001,0.007
			c0.003,0.003,0.011,0.001,0.019-0.007c0.01,0,0.02-0.001,0.027,0.002c0.1,0.027,0.143,0.198,0.098,0.38
			c-0.045,0.177-0.269,0.3-0.365,0.281c-0.133,0.396-0.393,0.903-0.76,1.183c-0.045,0.034-0.092,0.062-0.141,0.089
			c-0.066,0.037-0.136,0.067-0.211,0.086c-0.072,0.021-0.146,0.033-0.229,0.033c-0.078,0-0.155-0.012-0.229-0.033
			c-0.074-0.019-0.146-0.049-0.213-0.086c-0.048-0.026-0.096-0.055-0.139-0.088C7.622,13.227,7.367,12.726,7.236,12.319z
			 M7.907,13.755c0.197,0.131,0.418,0.21,0.662,0.21c0.246,0,0.467-0.08,0.662-0.21l0.354,0.075
			c-0.284,0.231-0.634,0.357-1.008,0.357c-0.369,0-0.724-0.13-1.007-0.361L7.907,13.755z M6.917,16.007H5.865
			c-0.09,0-0.164-0.033-0.215-0.091c-0.041-0.049-0.053-0.11-0.053-0.177h1.319L6.917,16.007L6.917,16.007z M10.107,15.235
			c-0.062,0-0.114,0.051-0.114,0.115v0.657H7.146V15.35c0-0.064-0.051-0.115-0.114-0.115s-0.114,0.051-0.114,0.115v0.159H5.63
			l0.168-0.943c0.035-0.206,0.24-0.417,0.444-0.459l1.049-0.222c0.341,0.338,0.804,0.532,1.287,0.532
			c0.488,0,0.941-0.188,1.285-0.529l1.035,0.219c0.205,0.043,0.408,0.253,0.445,0.459l0.167,0.943h-1.288V15.35
			C10.225,15.287,10.17,15.235,10.107,15.235z M11.491,15.917c-0.051,0.059-0.127,0.091-0.215,0.091h-1.053V15.74h1.319
			C11.542,15.807,11.529,15.867,11.491,15.917z M17.167,6.565h4.184c0.119,0,0.229-0.048,0.301-0.135
			c0.074-0.086,0.104-0.201,0.082-0.322l-0.155-0.866c-0.037-0.231-0.252-0.449-0.479-0.498l-1.149-0.242
			c0.219-0.209,0.383-0.499,0.493-0.792c0.142-0.052,0.283-0.178,0.326-0.344c0.056-0.218-0.004-0.414-0.141-0.499V2.713
			c0.123-0.375,0.189-0.985-0.373-1.314C20,1.252,19.792,1.242,19.635,1.294c-0.025-0.064,0.049-0.157,0.049-0.157
			c-0.131-0.005-0.197,0.064-0.229,0.103c-0.172-0.08-0.4-0.113-0.688-0.053c-0.935,0.196-1.054,1.415-0.884,1.682
			c-0.131,0.085-0.188,0.279-0.135,0.496c0.041,0.166,0.188,0.293,0.328,0.345c0.108,0.291,0.272,0.583,0.489,0.791l-1.147,0.242
			c-0.228,0.049-0.438,0.267-0.478,0.499l-0.156,0.867c-0.021,0.12,0.008,0.235,0.082,0.321C16.94,6.518,17.045,6.565,17.167,6.565z
			 M21.516,6.316c-0.039,0.045-0.1,0.071-0.166,0.071h-0.813V6.18h1.021C21.557,6.231,21.545,6.278,21.516,6.316z M18.227,3.537
			c-0.076,0.017-0.25-0.079-0.285-0.217c-0.034-0.141-0.002-0.273,0.076-0.294c0.021-0.007,0.047-0.002,0.068,0.011V2.826V2.825
			c0-0.003,0-0.007,0-0.01V2.742c0.02-0.178,0.189-0.518,1.119-0.212c0.318,0.105,0.518-0.061,0.617-0.282
			c0.314,0.035,0.527,0.394,0.605,0.615v0.175c0.014-0.006,0.022-0.011,0.034-0.013c0,0.002,0,0.005-0.002,0.005
			c0.004,0.003,0.008,0.001,0.017-0.005c0.008,0,0.016,0,0.021,0.002c0.076,0.021,0.108,0.153,0.073,0.294
			c-0.034,0.137-0.206,0.232-0.282,0.217c-0.103,0.307-0.304,0.698-0.586,0.915c-0.035,0.026-0.07,0.048-0.106,0.069
			c-0.054,0.028-0.105,0.052-0.162,0.067c-0.06,0.016-0.115,0.025-0.179,0.025c-0.062,0-0.118-0.009-0.176-0.025
			c-0.06-0.015-0.113-0.038-0.166-0.067c-0.037-0.02-0.072-0.042-0.104-0.068C18.524,4.237,18.327,3.851,18.227,3.537z
			 M18.745,4.647c0.152,0.102,0.322,0.162,0.512,0.162c0.191,0,0.361-0.062,0.514-0.163l0.273,0.058
			c-0.221,0.179-0.49,0.276-0.779,0.276c-0.285,0-0.561-0.101-0.777-0.279L18.745,4.647z M17.114,5.273
			c0.029-0.159,0.188-0.322,0.344-0.355l0.812-0.172c0.264,0.262,0.621,0.411,0.994,0.411c0.379,0,0.729-0.146,0.993-0.409
			l0.8,0.169c0.159,0.033,0.315,0.196,0.346,0.355l0.129,0.729h-0.996V5.878c0-0.049-0.039-0.089-0.088-0.089s-0.09,0.04-0.09,0.089
			v0.508h-2.199V5.878c0-0.049-0.039-0.089-0.09-0.089c-0.047,0-0.088,0.04-0.088,0.089v0.123h-0.996L17.114,5.273z M17.981,6.181
			v0.207h-0.812c-0.068,0-0.127-0.025-0.166-0.071c-0.031-0.038-0.041-0.085-0.041-0.136H17.981z M20.752,16.104
			c-2.191,0-4.158,0.951-5.53,2.455l-2.44-1.974c0.823-0.979,1.321-2.242,1.321-3.619c0-1.534-0.617-2.925-1.615-3.941
			c1.455-1.1,2.996-2.23,3.332-2.418c0.758,1.062,1.995,1.762,3.399,1.762c2.307,0,4.184-1.877,4.184-4.184
			C23.403,1.877,21.526,0,19.219,0c-2.309,0-4.186,1.877-4.186,4.185c0,0.728,0.205,1.402,0.531,1.999
			c-0.603,0.359-2.57,1.837-3.447,2.498c-0.982-0.837-2.254-1.346-3.643-1.346c-3.105,0-5.632,2.526-5.632,5.63
			c0,3.104,2.525,5.632,5.632,5.632c1.512,0,2.885-0.604,3.897-1.578L12.226,17.2l2.472,2c-0.898,1.233-1.438,2.75-1.438,4.393
			c0,4.132,3.362,7.49,7.491,7.49c4.131,0,7.49-3.358,7.49-7.49C28.243,19.462,24.883,16.104,20.752,16.104z M15.497,4.186
			c0-2.053,1.67-3.722,3.723-3.722s3.723,1.668,3.723,3.722c0,2.052-1.67,3.722-3.723,3.722C17.166,7.908,15.497,6.237,15.497,4.186
			z M8.475,17.977c-2.764,0-5.01-2.248-5.01-5.01c0-2.762,2.246-5.009,5.01-5.009c2.762,0,5.008,2.247,5.008,5.009
			C13.482,15.729,11.236,17.977,8.475,17.977z M20.752,30.257c-3.674,0-6.663-2.989-6.663-6.664c0-3.676,2.989-6.663,6.663-6.663
			s6.664,2.987,6.664,6.663C27.417,27.268,24.426,30.257,20.752,30.257z"/>
	</g>
</g>
<g>
</g>
<g>
</g>
<g>
</g>
<g>
</g>
<g>
</g>
<g>
</g>
<g>
</g>
<g>
</g>
<g>
</g>
<g>
</g>
<g>
</g>
<g>
</g>
<g>
</g>
<g>
</g>
<g>
</g>
</svg>
